<svg width="300" height="45" viewBox="0 0 300 45" fill="none" xmlns="http://www.w3.org/2000/svg">
<rect width="300" height="45" rx="4" fill="white"/>
<rect x="0.5" y="0.5" width="299" height="44" rx="3.5" stroke="#747775" stroke-opacity="0.6"/>
<path fill-rule="evenodd" clip-rule="evenodd" d="M37.64 22.7045C37.64 22.0664 37.5827 21.4527 37.4764 20.8636H29V24.345H33.8436C33.635 25.47 33.0009 26.4232 32.0477 27.0614V29.3195H34.9564C36.6582 27.7527 37.64 25.4455 37.64 22.7045Z" fill="#4285F4"/>
<path fill-rule="evenodd" clip-rule="evenodd" d="M28.9998 31.5C31.4298 31.5 33.467 30.6941 34.9561 29.3195L32.0475 27.0614C31.2416 27.6014 30.2107 27.9205 28.9998 27.9205C26.6557 27.9205 24.6716 26.3373 23.9638 24.21H20.957V26.5418C22.4379 29.4832 25.4816 31.5 28.9998 31.5Z" fill="#34A853"/>
<path fill-rule="evenodd" clip-rule="evenodd" d="M23.9641 24.21C23.7841 23.67 23.6818 23.0932 23.6818 22.5C23.6818 21.9068 23.7841 21.33 23.9641 20.79V18.4582H20.9573C20.3477 19.6732 20 21.0477 20 22.5C20 23.9523 20.3477 25.3268 20.9573 26.5418L23.9641 24.21Z" fill="#FBBC05"/>
<path fill-rule="evenodd" clip-rule="evenodd" d="M28.9998 17.0795C30.3211 17.0795 31.5075 17.5336 32.4402 18.4255L35.0216 15.8441C33.4629 14.3918 31.4257 13.5 28.9998 13.5C25.4816 13.5 22.4379 15.5168 20.957 18.4582L23.9638 20.79C24.6716 18.6627 26.6557 17.0795 28.9998 17.0795Z" fill="#EA4335"/>
<path d="M111.187 16.748H119.111V17.686H111.187V16.748ZM109.759 22.18H121.197V23.146H109.759V22.18ZM114.869 22.824H116.031V28.606H114.869V22.824ZM118.551 16.748H119.699V17.854C119.699 18.2927 119.689 18.7547 119.671 19.24C119.661 19.7253 119.624 20.262 119.559 20.85C119.493 21.4287 119.381 22.0727 119.223 22.782L118.061 22.628C118.313 21.6107 118.457 20.7193 118.495 19.954C118.532 19.1887 118.551 18.4887 118.551 17.854V16.748ZM124.094 16.468H132.242V17.406H124.094V16.468ZM122.638 20.64H134.118V21.578H122.638V20.64ZM131.486 16.468H132.634V17.28C132.634 17.728 132.62 18.2553 132.592 18.862C132.564 19.4593 132.466 20.1453 132.298 20.92L131.15 20.794C131.318 20.0287 131.416 19.3613 131.444 18.792C131.472 18.2227 131.486 17.7187 131.486 17.28V16.468ZM123.995 22.838H132.662V26.044H125.172V27.808H124.024V25.148H131.514V23.762H123.995V22.838ZM124.024 27.514H132.984V28.438H124.024V27.514ZM142.363 16.902C142.988 16.902 143.539 17.084 144.015 17.448C144.491 17.8027 144.864 18.3113 145.135 18.974C145.405 19.6367 145.541 20.416 145.541 21.312C145.541 22.208 145.405 22.9873 145.135 23.65C144.864 24.3127 144.491 24.826 144.015 25.19C143.539 25.554 142.988 25.736 142.363 25.736C141.747 25.736 141.196 25.554 140.711 25.19C140.235 24.826 139.861 24.3127 139.591 23.65C139.32 22.9873 139.185 22.208 139.185 21.312C139.185 20.416 139.32 19.6367 139.591 18.974C139.861 18.3113 140.235 17.8027 140.711 17.448C141.196 17.084 141.747 16.902 142.363 16.902ZM142.363 17.938C141.961 17.938 141.602 18.078 141.285 18.358C140.977 18.6287 140.734 19.0207 140.557 19.534C140.379 20.038 140.291 20.6307 140.291 21.312C140.291 21.9933 140.379 22.5907 140.557 23.104C140.734 23.608 140.977 24 141.285 24.28C141.602 24.56 141.966 24.7 142.377 24.7C142.778 24.7 143.133 24.56 143.441 24.28C143.758 24 144.001 23.608 144.169 23.104C144.346 22.5907 144.435 21.9933 144.435 21.312C144.435 20.6307 144.346 20.038 144.169 19.534C144.001 19.0207 143.758 18.6287 143.441 18.358C143.133 18.078 142.773 17.938 142.363 17.938ZM147.571 15.922H148.733V28.592H147.571V15.922ZM148.467 20.976H150.805V21.956H148.467V20.976ZM161.08 15.922H162.242V28.606H161.08V15.922ZM155.564 16.902C156.189 16.902 156.74 17.084 157.216 17.448C157.701 17.8027 158.079 18.3113 158.35 18.974C158.63 19.6367 158.77 20.416 158.77 21.312C158.77 22.208 158.63 22.9873 158.35 23.65C158.079 24.3127 157.701 24.826 157.216 25.19C156.74 25.554 156.189 25.736 155.564 25.736C154.938 25.736 154.383 25.554 153.898 25.19C153.412 24.826 153.03 24.3127 152.75 23.65C152.479 22.9873 152.344 22.208 152.344 21.312C152.344 20.416 152.479 19.6367 152.75 18.974C153.03 18.3113 153.412 17.8027 153.898 17.448C154.383 17.084 154.938 16.902 155.564 16.902ZM155.564 17.938C155.144 17.938 154.775 18.078 154.458 18.358C154.15 18.6287 153.907 19.0207 153.73 19.534C153.552 20.038 153.464 20.6307 153.464 21.312C153.464 21.9933 153.552 22.5907 153.73 23.104C153.907 23.608 154.15 24 154.458 24.28C154.775 24.56 155.144 24.7 155.564 24.7C155.974 24.7 156.334 24.56 156.642 24.28C156.959 24 157.206 23.608 157.384 23.104C157.561 22.5907 157.65 21.9933 157.65 21.312C157.65 20.6307 157.561 20.038 157.384 19.534C157.206 19.0207 156.959 18.6287 156.642 18.358C156.334 18.078 155.974 17.938 155.564 17.938ZM173.959 15.922H175.121V28.606H173.959V15.922ZM165.573 24.476H166.595C167.435 24.476 168.191 24.4667 168.863 24.448C169.535 24.4293 170.169 24.3873 170.767 24.322C171.373 24.2567 171.989 24.168 172.615 24.056L172.727 25.036C172.092 25.1573 171.467 25.2507 170.851 25.316C170.235 25.372 169.586 25.414 168.905 25.442C168.223 25.4607 167.453 25.47 166.595 25.47H165.573V24.476ZM165.573 17.126H171.551V18.092H166.735V24.84H165.573V17.126ZM177.639 26.058H189.119V27.024H177.639V26.058ZM182.777 23.356H183.925V26.464H182.777V23.356ZM179.039 16.86H187.691V20.696H180.215V23.23H179.067V19.772H186.543V17.812H179.039V16.86ZM179.067 22.74H187.985V23.692H179.067V22.74ZM194.005 26.058H205.485V27.024H194.005V26.058ZM199.143 23.356H200.291V26.464H199.143V23.356ZM195.405 16.86H204.057V20.696H196.581V23.23H195.433V19.772H202.909V17.812H195.405V16.86ZM195.433 22.74H204.351V23.692H195.433V22.74ZM208.13 17.266H216.278V18.218H208.13V17.266ZM206.884 25.778H218.322V26.744H206.884V25.778ZM215.648 17.266H216.796V18.54C216.796 19.072 216.786 19.6413 216.768 20.248C216.758 20.8453 216.721 21.508 216.656 22.236C216.59 22.964 216.478 23.7853 216.32 24.7L215.144 24.574C215.312 23.7153 215.428 22.9267 215.494 22.208C215.568 21.4893 215.61 20.8267 215.62 20.22C215.638 19.6133 215.648 19.0533 215.648 18.54V17.266ZM228.975 15.936H230.137V25.176H228.975V15.936ZM222.003 27.36H230.529V28.312H222.003V27.36ZM222.003 24.238H223.165V27.682H222.003V24.238ZM223.347 16.818C223.981 16.818 224.546 16.9487 225.041 17.21C225.535 17.4713 225.927 17.84 226.217 18.316C226.506 18.7827 226.651 19.3193 226.651 19.926C226.651 20.5327 226.506 21.074 226.217 21.55C225.927 22.0167 225.535 22.3853 225.041 22.656C224.546 22.9173 223.981 23.048 223.347 23.048C222.721 23.048 222.157 22.9173 221.653 22.656C221.158 22.3853 220.766 22.0167 220.477 21.55C220.187 21.074 220.043 20.5327 220.043 19.926C220.043 19.3193 220.187 18.7827 220.477 18.316C220.766 17.84 221.158 17.4713 221.653 17.21C222.157 16.9487 222.721 16.818 223.347 16.818ZM223.347 17.826C222.936 17.826 222.567 17.9147 222.241 18.092C221.914 18.2693 221.653 18.5167 221.457 18.834C221.27 19.1513 221.177 19.5153 221.177 19.926C221.177 20.346 221.27 20.7147 221.457 21.032C221.653 21.34 221.914 21.5827 222.241 21.76C222.567 21.9373 222.936 22.026 223.347 22.026C223.757 22.026 224.126 21.9373 224.453 21.76C224.789 21.5827 225.05 21.34 225.237 21.032C225.423 20.7147 225.517 20.346 225.517 19.926C225.517 19.5153 225.423 19.1513 225.237 18.834C225.05 18.5167 224.789 18.2693 224.453 18.092C224.126 17.9147 223.757 17.826 223.347 17.826Z" fill="#1F1F1F" fill-opacity="0.9"/>
</svg>
