<svg width="300" height="45" viewBox="0 0 300 45" fill="none" xmlns="http://www.w3.org/2000/svg">
<rect width="300" height="45" rx="6" fill="#FEE500"/>
<g clip-path="url(#clip0_2503_906)">
<path opacity="0.902" fill-rule="evenodd" clip-rule="evenodd" d="M29 14.444C24.29 14.444 20 18.23 20 21.433C20 23.833 21.558 25.95 23.931 27.208L22.933 30.874C22.844 31.199 23.213 31.457 23.496 31.27L27.873 28.365C28.242 28.401 28.618 28.422 29 28.422C33.97 28.422 38 25.293 38 21.433C38 18.23 33.97 14.444 29 14.444Z" fill="black"/>
</g>
<path d="M104.695 17.238H105.829C105.829 18.1527 105.74 19.0487 105.563 19.926C105.386 20.794 105.082 21.6247 104.653 22.418C104.224 23.202 103.636 23.9393 102.889 24.63C102.142 25.3207 101.204 25.946 100.075 26.506L99.4311 25.61C100.439 25.1153 101.279 24.5693 101.951 23.972C102.623 23.3747 103.16 22.7307 103.561 22.04C103.962 21.3493 104.252 20.612 104.429 19.828C104.606 19.044 104.695 18.2227 104.695 17.364V17.238ZM100.131 17.238H105.395V18.19H100.131V17.238ZM104.527 20.374V21.284L99.6691 21.746L99.4871 20.724L104.527 20.374ZM107.887 15.922H109.049V28.578H107.887V15.922ZM108.741 21.06H111.065V22.026H108.741V21.06ZM117.574 17.238H118.708C118.708 18.1527 118.619 19.0487 118.442 19.926C118.265 20.794 117.961 21.6247 117.532 22.418C117.103 23.202 116.515 23.9393 115.768 24.63C115.021 25.3207 114.083 25.946 112.954 26.506L112.31 25.61C113.318 25.1153 114.158 24.5693 114.83 23.972C115.502 23.3747 116.039 22.7307 116.44 22.04C116.841 21.3493 117.131 20.612 117.308 19.828C117.485 19.044 117.574 18.2227 117.574 17.364V17.238ZM113.01 17.238H118.274V18.19H113.01V17.238ZM117.406 20.374V21.284L112.548 21.746L112.366 20.724L117.406 20.374ZM120.766 15.922H121.928V28.578H120.766V15.922ZM121.62 21.06H123.944V22.026H121.62V21.06ZM130.215 23.076H131.363V26.226H130.215V23.076ZM130.789 16.748C131.685 16.748 132.478 16.888 133.169 17.168C133.86 17.4387 134.401 17.8213 134.793 18.316C135.194 18.8107 135.395 19.394 135.395 20.066C135.395 20.738 135.194 21.326 134.793 21.83C134.401 22.3247 133.86 22.7073 133.169 22.978C132.478 23.2487 131.685 23.384 130.789 23.384C129.902 23.384 129.109 23.2487 128.409 22.978C127.718 22.7073 127.177 22.3247 126.785 21.83C126.393 21.326 126.197 20.738 126.197 20.066C126.197 19.394 126.393 18.8107 126.785 18.316C127.177 17.8213 127.718 17.4387 128.409 17.168C129.109 16.888 129.902 16.748 130.789 16.748ZM130.789 17.686C130.117 17.686 129.52 17.784 128.997 17.98C128.474 18.176 128.064 18.456 127.765 18.82C127.466 19.1747 127.317 19.59 127.317 20.066C127.317 20.542 127.466 20.962 127.765 21.326C128.064 21.69 128.474 21.97 128.997 22.166C129.52 22.362 130.117 22.46 130.789 22.46C131.461 22.46 132.058 22.362 132.581 22.166C133.104 21.97 133.514 21.69 133.813 21.326C134.121 20.962 134.275 20.542 134.275 20.066C134.275 19.59 134.121 19.1747 133.813 18.82C133.514 18.456 133.104 18.176 132.581 17.98C132.058 17.784 131.461 17.686 130.789 17.686ZM125.077 26.002H136.557V26.968H125.077V26.002ZM144.802 16.902C145.428 16.902 145.978 17.084 146.454 17.448C146.93 17.8027 147.304 18.3113 147.574 18.974C147.845 19.6367 147.98 20.416 147.98 21.312C147.98 22.208 147.845 22.9873 147.574 23.65C147.304 24.3127 146.93 24.826 146.454 25.19C145.978 25.554 145.428 25.736 144.802 25.736C144.186 25.736 143.636 25.554 143.15 25.19C142.674 24.826 142.301 24.3127 142.03 23.65C141.76 22.9873 141.624 22.208 141.624 21.312C141.624 20.416 141.76 19.6367 142.03 18.974C142.301 18.3113 142.674 17.8027 143.15 17.448C143.636 17.084 144.186 16.902 144.802 16.902ZM144.802 17.938C144.401 17.938 144.042 18.078 143.724 18.358C143.416 18.6287 143.174 19.0207 142.996 19.534C142.819 20.038 142.73 20.6307 142.73 21.312C142.73 21.9933 142.819 22.5907 142.996 23.104C143.174 23.608 143.416 24 143.724 24.28C144.042 24.56 144.406 24.7 144.816 24.7C145.218 24.7 145.572 24.56 145.88 24.28C146.198 24 146.44 23.608 146.608 23.104C146.786 22.5907 146.874 21.9933 146.874 21.312C146.874 20.6307 146.786 20.038 146.608 19.534C146.44 19.0207 146.198 18.6287 145.88 18.358C145.572 18.078 145.213 17.938 144.802 17.938ZM150.01 15.922H151.172V28.592H150.01V15.922ZM150.906 20.976H153.244V21.956H150.906V20.976ZM163.519 15.922H164.681V28.606H163.519V15.922ZM158.003 16.902C158.628 16.902 159.179 17.084 159.655 17.448C160.14 17.8027 160.518 18.3113 160.789 18.974C161.069 19.6367 161.209 20.416 161.209 21.312C161.209 22.208 161.069 22.9873 160.789 23.65C160.518 24.3127 160.14 24.826 159.655 25.19C159.179 25.554 158.628 25.736 158.003 25.736C157.378 25.736 156.822 25.554 156.337 25.19C155.852 24.826 155.469 24.3127 155.189 23.65C154.918 22.9873 154.783 22.208 154.783 21.312C154.783 20.416 154.918 19.6367 155.189 18.974C155.469 18.3113 155.852 17.8027 156.337 17.448C156.822 17.084 157.378 16.902 158.003 16.902ZM158.003 17.938C157.583 17.938 157.214 18.078 156.897 18.358C156.589 18.6287 156.346 19.0207 156.169 19.534C155.992 20.038 155.903 20.6307 155.903 21.312C155.903 21.9933 155.992 22.5907 156.169 23.104C156.346 23.608 156.589 24 156.897 24.28C157.214 24.56 157.583 24.7 158.003 24.7C158.414 24.7 158.773 24.56 159.081 24.28C159.398 24 159.646 23.608 159.823 23.104C160 22.5907 160.089 21.9933 160.089 21.312C160.089 20.6307 160 20.038 159.823 19.534C159.646 19.0207 159.398 18.6287 159.081 18.358C158.773 18.078 158.414 17.938 158.003 17.938ZM176.398 15.922H177.56V28.606H176.398V15.922ZM168.012 24.476H169.034C169.874 24.476 170.63 24.4667 171.302 24.448C171.974 24.4293 172.609 24.3873 173.206 24.322C173.813 24.2567 174.429 24.168 175.054 24.056L175.166 25.036C174.531 25.1573 173.906 25.2507 173.29 25.316C172.674 25.372 172.025 25.414 171.344 25.442C170.663 25.4607 169.893 25.47 169.034 25.47H168.012V24.476ZM168.012 17.126H173.99V18.092H169.174V24.84H168.012V17.126ZM180.079 26.058H191.559V27.024H180.079V26.058ZM185.217 23.356H186.365V26.464H185.217V23.356ZM181.479 16.86H190.131V20.696H182.655V23.23H181.507V19.772H188.983V17.812H181.479V16.86ZM181.507 22.74H190.425V23.692H181.507V22.74ZM196.444 26.058H207.924V27.024H196.444V26.058ZM201.582 23.356H202.73V26.464H201.582V23.356ZM197.844 16.86H206.496V20.696H199.02V23.23H197.872V19.772H205.348V17.812H197.844V16.86ZM197.872 22.74H206.79V23.692H197.872V22.74ZM210.569 17.266H218.717V18.218H210.569V17.266ZM209.323 25.778H220.761V26.744H209.323V25.778ZM218.087 17.266H219.235V18.54C219.235 19.072 219.226 19.6413 219.207 20.248C219.198 20.8453 219.16 21.508 219.095 22.236C219.03 22.964 218.918 23.7853 218.759 24.7L217.583 24.574C217.751 23.7153 217.868 22.9267 217.933 22.208C218.008 21.4893 218.05 20.8267 218.059 20.22C218.078 19.6133 218.087 19.0533 218.087 18.54V17.266ZM231.414 15.936H232.576V25.176H231.414V15.936ZM224.442 27.36H232.968V28.312H224.442V27.36ZM224.442 24.238H225.604V27.682H224.442V24.238ZM225.786 16.818C226.421 16.818 226.985 16.9487 227.48 17.21C227.975 17.4713 228.367 17.84 228.656 18.316C228.945 18.7827 229.09 19.3193 229.09 19.926C229.09 20.5327 228.945 21.074 228.656 21.55C228.367 22.0167 227.975 22.3853 227.48 22.656C226.985 22.9173 226.421 23.048 225.786 23.048C225.161 23.048 224.596 22.9173 224.092 22.656C223.597 22.3853 223.205 22.0167 222.916 21.55C222.627 21.074 222.482 20.5327 222.482 19.926C222.482 19.3193 222.627 18.7827 222.916 18.316C223.205 17.84 223.597 17.4713 224.092 17.21C224.596 16.9487 225.161 16.818 225.786 16.818ZM225.786 17.826C225.375 17.826 225.007 17.9147 224.68 18.092C224.353 18.2693 224.092 18.5167 223.896 18.834C223.709 19.1513 223.616 19.5153 223.616 19.926C223.616 20.346 223.709 20.7147 223.896 21.032C224.092 21.34 224.353 21.5827 224.68 21.76C225.007 21.9373 225.375 22.026 225.786 22.026C226.197 22.026 226.565 21.9373 226.892 21.76C227.228 21.5827 227.489 21.34 227.676 21.032C227.863 20.7147 227.956 20.346 227.956 19.926C227.956 19.5153 227.863 19.1513 227.676 18.834C227.489 18.5167 227.228 18.2693 226.892 18.092C226.565 17.9147 226.197 17.826 225.786 17.826Z" fill="#1F1F1F"/>
<defs>
<clipPath id="clip0_2503_906">
<rect width="18" height="18" fill="white" transform="translate(20 13.5)"/>
</clipPath>
</defs>
</svg>
